<?xml version="1.0" encoding="utf-8"?>
<!-- Generator: Adobe Illustrator 21.1.0, SVG Export Plug-In . SVG Version: 6.00 Build 0)  -->
<svg version="1.1" id="Слой_1" xmlns="http://www.w3.org/2000/svg" xmlns:xlink="http://www.w3.org/1999/xlink" x="0px" y="0px"
	 viewBox="0 0 16.7 11.6" style="enable-background:new 0 0 16.7 11.6;" xml:space="preserve">
<style type="text/css">
	.st0{fill:#FFFFFF;}
</style>
<g>
	<path class="st0" d="M0,2.4h2l0,1.7H0L0,2.4z M0,4.9H2l0,6.7H0L0,4.9z"/>
	<path class="st0" d="M3.8,10l5.1-5.9H3.9V2.3h7.6v1.5L6.4,9.8h5.1v1.8H3.8V10z"/>
	<g>
		<path class="st0" d="M13.3,3.9L14,3.2c0.3,0.4,0.6,0.6,1.1,0.6c0.4,0,0.7-0.2,0.7-0.6c0-0.4-0.3-0.6-0.9-0.6h-0.4L14.2,2l1.1-1.1
			h-1.8V0h3.1v0.8l-1.2,1.1c0.6,0.1,1.2,0.4,1.2,1.3s-0.6,1.5-1.7,1.5C14.2,4.7,13.6,4.4,13.3,3.9z"/>
	</g>
</g>
</svg>
